<?xml version="1.0" standalone="no"?>
<!DOCTYPE svg PUBLIC "-//W3C//DTD SVG 20010904//EN"
 "http://www.w3.org/TR/2001/REC-SVG-20010904/DTD/svg10.dtd">
<svg version="1.0" xmlns="http://www.w3.org/2000/svg"
 width="114.000000pt" height="52.000000pt" viewBox="0 0 114.000000 52.000000"
 preserveAspectRatio="xMidYMid meet">

<g transform="translate(0.000000,52.000000) scale(0.100000,-0.100000)"
fill="#000000" stroke="none">
<path d="M20 500 c-19 -19 -20 -33 -20 -243 0 -204 2 -225 18 -240 17 -15 70
-17 554 -17 505 0 536 1 551 18 15 16 17 48 17 240 0 209 -1 223 -20 242 -19
19 -33 20 -550 20 -517 0 -531 -1 -550 -20z m1079 -17 c24 -16 24 -17 17 -147
-11 -221 -23 -252 -104 -276 -20 -6 -244 -17 -496 -25 -424 -13 -461 -13 -478
2 -16 14 -18 36 -18 221 0 177 2 208 17 224 15 17 45 18 527 18 460 0 514 -2
535 -17z"/>
<path d="M176 368 c-29 -111 -29 -132 2 -110 33 24 45 25 58 8 9 -13 17 -15
30 -8 9 5 25 7 35 5 15 -4 19 1 20 23 l1 29 11 -27 c8 -21 18 -28 39 -28 28 0
28 1 28 61 0 43 -3 60 -12 57 -7 -3 -15 -15 -19 -29 l-6 -24 -11 28 c-11 27
-26 32 -56 21 -11 -4 -16 -20 -17 -53 l-1 -46 -10 53 -10 52 -39 0 c-23 0 -41
-5 -43 -12z m48 -43 c3 -9 0 -15 -9 -15 -9 0 -12 6 -9 15 4 8 7 15 9 15 2 0 5
-7 9 -15z"/>
<path d="M417 373 c-2 -5 -1 -33 2 -63 l6 -55 41 -3 c51 -4 74 16 74 63 0 58
-7 65 -65 65 -30 0 -56 -3 -58 -7z m78 -58 c0 -16 -6 -30 -12 -32 -9 -3 -13 7
-13 32 0 25 4 35 13 33 6 -3 12 -17 12 -33z"/>
<path d="M554 349 c3 -17 6 -47 6 -65 0 -39 28 -49 37 -14 6 21 6 21 20 1 17
-25 46 -17 38 10 -4 10 -3 24 1 31 5 8 12 -1 19 -23 11 -31 16 -34 54 -37 32
-2 46 1 57 15 17 22 18 54 2 88 -15 34 -79 36 -102 3 l-16 -22 -16 22 c-12 17
-25 22 -61 22 l-45 0 6 -31z m66 -14 c0 -8 -4 -15 -10 -15 -5 0 -10 7 -10 15
0 8 5 15 10 15 6 0 10 -7 10 -15z m130 -25 c0 -20 -5 -30 -15 -30 -10 0 -15
10 -15 30 0 20 5 30 15 30 10 0 15 -10 15 -30z"/>
<path d="M866 328 c8 -76 9 -78 52 -78 48 0 72 24 72 71 0 48 -15 59 -77 59
l-52 0 5 -52z m72 -10 c-3 -34 -20 -42 -26 -13 -5 22 5 45 18 45 7 0 10 -14 8
-32z"/>
<path d="M810 315 c0 -48 2 -55 20 -55 18 0 20 7 20 55 0 48 -2 55 -20 55 -18
0 -20 -7 -20 -55z"/>
<path d="M410 210 c-8 -5 -11 -12 -8 -15 4 -4 3 -17 -1 -29 -22 -58 -22 -76
-1 -76 11 0 20 5 20 10 0 6 11 10 25 10 14 0 25 -4 25 -10 0 -5 9 -10 20 -10
23 0 24 10 9 80 -10 47 -12 50 -42 50 -18 0 -39 -4 -47 -10z m50 -56 c0 -8 -4
-14 -10 -14 -5 0 -10 9 -10 21 0 11 5 17 10 14 6 -3 10 -13 10 -21z"/>
<path d="M520 155 c0 -58 2 -65 20 -65 11 0 20 7 20 15 0 9 12 18 30 22 42 8
56 37 35 69 -12 19 -24 24 -60 24 l-45 0 0 -65z m70 14 c0 -5 -4 -9 -10 -9 -5
0 -10 7 -10 16 0 8 5 12 10 9 6 -3 10 -10 10 -16z"/>
<path d="M650 150 c0 -53 2 -60 20 -60 12 0 20 7 20 18 1 16 1 16 14 0 7 -10
21 -18 31 -18 13 0 16 5 10 23 -9 28 -9 46 0 75 6 17 3 22 -10 22 -10 0 -24
-8 -31 -17 -13 -17 -13 -17 -14 0 0 10 -8 17 -20 17 -18 0 -20 -7 -20 -60z"/>
</g>
</svg>
