<?xml version="1.0" standalone="no"?>
<!DOCTYPE svg PUBLIC "-//W3C//DTD SVG 20010904//EN"
 "http://www.w3.org/TR/2001/REC-SVG-20010904/DTD/svg10.dtd">
<svg version="1.0" xmlns="http://www.w3.org/2000/svg"
 width="114.000000pt" height="52.000000pt" viewBox="0 0 114.000000 52.000000"
 preserveAspectRatio="xMidYMid meet">

<g transform="translate(0.000000,52.000000) scale(0.100000,-0.100000)"
fill="#000000" stroke="none">
<path d="M25 485 c-25 -24 -25 -25 -25 -230 0 -205 0 -206 25 -230 l24 -25
521 0 521 0 24 25 c25 24 25 25 25 230 0 205 0 206 -25 230 l-24 25 -521 0
-521 0 -24 -25z m1077 -12 c14 -13 18 -31 18 -85 0 -118 -19 -261 -39 -288
-34 -47 -67 -51 -560 -66 -431 -13 -465 -13 -483 2 -16 16 -18 36 -18 220 0
171 2 205 16 218 14 14 76 16 531 16 467 0 518 -2 535 -17z"/>
<path d="M503 313 c-7 -2 -13 -16 -13 -29 0 -15 -6 -24 -15 -24 -9 0 -15 9
-15 25 0 20 -5 25 -25 25 -24 0 -25 -2 -25 -76 0 -72 1 -75 23 -72 16 2 23 11
25 31 5 38 32 36 32 -4 0 -26 3 -30 23 -27 21 3 22 8 22 77 0 72 -6 85 -32 74z"/>
<path d="M892 313 c-29 -4 -33 -7 -28 -26 3 -12 6 -43 6 -68 0 -45 1 -47 31
-51 17 -3 42 -3 55 0 32 6 31 32 -1 32 -16 0 -25 6 -25 15 0 9 10 15 26 15 14
0 23 4 19 10 -3 6 -15 10 -26 10 -10 0 -19 7 -19 15 0 9 9 15 25 15 16 0 25 6
25 15 0 8 -6 15 -14 15 -8 0 -20 2 -28 3 -7 2 -28 2 -46 0z"/>
<path d="M197 304 c-4 -4 -7 -36 -7 -71 0 -56 2 -63 20 -63 22 0 34 43 28 101
-3 32 -24 49 -41 33z"/>
<path d="M259 303 c-3 -17 3 -128 7 -135 8 -12 42 4 47 22 3 11 16 20 32 22
39 4 58 36 42 68 -11 22 -20 25 -70 28 -31 2 -58 -1 -58 -5z m79 -40 c-5 -25
-28 -28 -28 -4 0 12 6 21 16 21 9 0 14 -7 12 -17z"/>
<path d="M562 298 c-15 -15 -16 -92 -2 -119 8 -15 21 -19 60 -19 39 0 52 4 60
19 14 27 13 104 -2 119 -16 16 -100 16 -116 0z m78 -63 c0 -28 -4 -35 -20 -35
-16 0 -20 7 -20 35 0 28 4 35 20 35 16 0 20 -7 20 -35z"/>
<path d="M710 240 c0 -63 2 -70 20 -70 16 0 20 7 21 33 l0 32 16 -32 c14 -27
22 -33 50 -33 l33 0 0 70 c0 63 -2 70 -19 70 -15 0 -21 -8 -24 -32 l-4 -33
-13 33 c-12 27 -20 32 -47 32 l-33 0 0 -70z"/>
</g>
</svg>
