<?xml version="1.0" standalone="no"?>
<!DOCTYPE svg PUBLIC "-//W3C//DTD SVG 20010904//EN"
 "http://www.w3.org/TR/2001/REC-SVG-20010904/DTD/svg10.dtd">
<svg version="1.0" xmlns="http://www.w3.org/2000/svg"
 width="114.000000pt" height="52.000000pt" viewBox="0 0 114.000000 52.000000"
 preserveAspectRatio="xMidYMid meet">

<g transform="translate(0.000000,52.000000) scale(0.100000,-0.100000)"
fill="#000000" stroke="none">
<path d="M20 500 c-19 -19 -20 -33 -20 -243 0 -204 2 -225 18 -240 17 -15 70
-17 554 -17 505 0 536 1 551 18 15 16 17 48 17 240 0 209 -1 223 -20 242 -19
19 -33 20 -550 20 -517 0 -531 -1 -550 -20z m1079 -17 c24 -16 24 -17 17 -147
-11 -221 -23 -252 -104 -276 -20 -6 -244 -17 -496 -25 -424 -13 -461 -13 -478
2 -16 14 -18 36 -18 221 0 177 2 208 17 224 15 17 45 18 527 18 460 0 514 -2
535 -17z"/>
<path d="M345 309 c0 -63 -4 -70 -47 -83 -12 -3 -15 -11 -11 -22 5 -13 15 -15
56 -11 27 4 51 8 53 10 2 1 6 40 10 85 l7 82 -34 0 -34 0 0 -61z"/>
<path d="M447 333 c-16 -16 -5 -32 26 -36 l32 -3 -33 -9 c-46 -11 -63 -48 -35
-76 17 -17 27 -19 71 -13 l52 7 0 56 c0 31 -5 62 -12 69 -13 13 -90 17 -101 5z
m63 -88 c0 -8 -7 -15 -15 -15 -16 0 -20 12 -8 23 11 12 23 8 23 -8z"/>
<path d="M589 333 c-14 -3 -15 -11 -8 -42 16 -74 27 -91 54 -91 21 0 29 8 46
47 26 61 28 86 7 91 -11 2 -20 -8 -28 -32 -15 -45 -26 -46 -34 -1 -4 19 -10
34 -14 34 -4 -1 -14 -3 -23 -6z"/>
<path d="M735 330 c-11 -17 5 -30 38 -31 l32 -1 -40 -12 c-34 -11 -40 -17 -43
-43 -4 -43 17 -56 78 -48 36 5 50 11 51 23 4 45 -4 108 -15 114 -17 11 -94 10
-101 -2z m65 -85 c0 -8 -7 -15 -15 -15 -16 0 -20 12 -8 23 11 12 23 8 23 -8z"/>
</g>
</svg>
