<?xml version="1.0" standalone="no"?>
<!DOCTYPE svg PUBLIC "-//W3C//DTD SVG 20010904//EN"
 "http://www.w3.org/TR/2001/REC-SVG-20010904/DTD/svg10.dtd">
<svg version="1.0" xmlns="http://www.w3.org/2000/svg"
 width="114.000000pt" height="52.000000pt" viewBox="0 0 114.000000 52.000000"
 preserveAspectRatio="xMidYMid meet">

<g transform="translate(0.000000,52.000000) scale(0.100000,-0.100000)"
fill="#000000" stroke="none">
<path d="M20 490 c-19 -19 -20 -33 -20 -235 0 -202 1 -216 20 -235 19 -19 33
-20 550 -20 517 0 531 1 550 20 19 19 20 33 20 235 0 202 -1 216 -20 235 -19
19 -33 20 -550 20 -517 0 -531 -1 -550 -20z m1085 -20 c16 -18 17 -33 12 -143
-7 -144 -22 -219 -45 -240 -40 -34 -89 -39 -551 -53 -430 -13 -466 -13 -483 3
-16 15 -18 35 -18 223 0 147 3 209 12 218 9 9 141 12 533 12 509 0 522 0 540
-20z"/>
<path d="M407 413 c-2 -5 -2 -47 1 -95 l5 -88 28 0 c24 0 29 4 29 24 0 21 6
25 40 31 65 11 89 73 48 122 -11 14 -144 19 -151 6z m101 -56 c2 -10 -4 -20
-13 -23 -21 -9 -28 0 -20 26 8 24 28 22 33 -3z"/>
<path d="M652 410 c-48 -11 -55 -22 -56 -90 -1 -70 4 -75 76 -85 53 -8 68 -2
68 25 0 14 -9 20 -37 22 -30 2 -39 7 -41 25 -5 37 15 63 49 63 26 0 30 3 27
23 -3 25 -31 31 -86 17z"/>
<path d="M357 204 c-13 -13 -7 -24 14 -24 11 0 19 5 17 12 -5 14 -22 21 -31
12z"/>
<path d="M560 185 c0 -8 -9 -15 -20 -15 -24 0 -43 -34 -35 -60 5 -16 15 -20
51 -20 l44 0 0 55 c0 48 -2 55 -20 55 -11 0 -20 -7 -20 -15z m0 -60 c0 -8 -4
-15 -10 -15 -5 0 -10 7 -10 15 0 8 5 15 10 15 6 0 10 -7 10 -15z"/>
<path d="M214 158 c3 -13 6 -33 6 -45 0 -18 6 -23 25 -23 14 0 25 5 25 12 0 9
3 9 12 0 31 -31 58 -8 58 49 0 31 -9 36 -28 17 -9 -9 -12 -9 -12 0 0 7 -9 12
-20 12 -12 0 -20 -7 -20 -17 -1 -17 -1 -17 -11 0 -15 26 -43 22 -35 -5z"/>
<path d="M400 171 c0 -4 -11 -6 -25 -3 -23 4 -25 2 -25 -37 0 -30 4 -41 15
-41 10 0 15 10 16 28 l0 27 12 -25 c16 -35 16 -35 30 -15 13 16 14 16 20 1 4
-9 16 -16 27 -16 17 0 20 6 20 45 0 46 -12 58 -28 29 -8 -15 -10 -15 -15 0 -7
16 -47 23 -47 7z"/>
<path d="M621 166 c-7 -8 -11 -27 -9 -43 3 -25 7 -28 45 -31 40 -3 43 -1 52
30 l9 33 1 -32 c1 -28 5 -33 26 -33 14 0 25 5 25 12 0 9 3 9 12 0 31 -31 58
-8 58 49 0 31 -9 36 -28 17 -9 -9 -12 -9 -12 0 0 7 -9 12 -20 12 -12 0 -20 -7
-20 -17 -1 -17 -1 -17 -11 0 -11 19 -39 23 -39 5 0 -9 -3 -9 -12 0 -17 17 -63
15 -77 -2z m49 -30 c0 -8 -4 -18 -10 -21 -5 -3 -10 3 -10 14 0 12 5 21 10 21
6 0 10 -6 10 -14z"/>
<path d="M857 173 c-13 -12 -7 -42 11 -52 16 -10 16 -10 0 -11 -10 0 -18 -4
-18 -10 0 -11 39 -13 64 -4 24 9 20 42 -6 47 l-23 4 23 8 c12 4 22 11 22 16 0
10 -63 12 -73 2z"/>
</g>
</svg>
